<svg width="17" height="17" viewBox="0 0 17 17" fill="none" xmlns="http://www.w3.org/2000/svg">
<rect x="1.45996" y="1.00488" width="15" height="15" rx="1.5" fill="#005E80" stroke="#005E80"/>
<path d="M4.87304 7.54004H4.87322C4.95252 7.54014 5.03077 7.55819 5.10209 7.59286C5.17337 7.62751 5.23588 7.67784 5.28493 7.74008L4.87304 7.54004ZM4.87304 7.54004H4.0539C3.85027 7.54004 3.73656 7.77464 3.86228 7.93408L3.86233 7.93415L7.0721 12.0006L7.07214 12.0006C7.28243 12.2668 7.68564 12.266 7.89663 12.0011L7.89704 12.0005L13.6196 4.74887C13.6198 4.74866 13.62 4.74846 13.6201 4.74826C13.7483 4.58783 13.6299 4.35488 13.4289 4.35488H12.6098C12.4494 4.35488 12.2966 4.42838 12.1976 4.55532C12.1975 4.55543 12.1974 4.55554 12.1973 4.55565L7.48399 10.5264M4.87304 7.54004L7.48399 10.5264M7.48399 10.5264L5.28502 7.7402L7.48399 10.5264Z" fill="white" stroke="white" stroke-width="0.3"/>
</svg>
