<svg width="25" height="25" viewBox="0 0 25 25" fill="none" xmlns="http://www.w3.org/2000/svg">
<path d="M22.21 9.65488C19.9 6.02488 16.52 3.93488 12.96 3.93488C11.18 3.93488 9.44996 4.45488 7.86996 5.42488C6.28996 6.40488 4.86996 7.83488 3.70996 9.65488C2.70996 11.2249 2.70996 13.7749 3.70996 15.3449C6.01996 18.9849 9.39996 21.0649 12.96 21.0649C14.74 21.0649 16.47 20.5449 18.05 19.5749C19.63 18.5949 21.05 17.1649 22.21 15.3449C23.21 13.7849 23.21 11.2249 22.21 9.65488ZM12.96 16.5449C10.72 16.5449 8.91996 14.7349 8.91996 12.5049C8.91996 10.2749 10.72 8.46488 12.96 8.46488C15.2 8.46488 17 10.2749 17 12.5049C17 14.7349 15.2 16.5449 12.96 16.5449Z" fill="#A9A9A9"/>
<path d="M12.96 9.64488C11.39 9.64488 10.11 10.9249 10.11 12.5049C10.11 14.0749 11.39 15.3549 12.96 15.3549C14.53 15.3549 15.82 14.0749 15.82 12.5049C15.82 10.9349 14.53 9.64488 12.96 9.64488Z" fill="#A9A9A9"/>
</svg>
