<svg width="17" height="21" viewBox="0 0 17 21" fill="none" xmlns="http://www.w3.org/2000/svg">
<path d="M13.96 7.50488V5.50488C13.96 2.70488 11.76 0.504883 8.95996 0.504883C6.15996 0.504883 3.95996 2.70488 3.95996 5.50488V7.50488C2.25996 7.50488 0.959961 8.80488 0.959961 10.5049V17.5049C0.959961 19.2049 2.25996 20.5049 3.95996 20.5049H13.96C15.66 20.5049 16.96 19.2049 16.96 17.5049V10.5049C16.96 8.80488 15.66 7.50488 13.96 7.50488ZM5.95996 5.50488C5.95996 3.80488 7.25996 2.50488 8.95996 2.50488C10.66 2.50488 11.96 3.80488 11.96 5.50488V7.50488H5.95996V5.50488ZM9.95996 15.5049C9.95996 16.1049 9.55996 16.5049 8.95996 16.5049C8.35996 16.5049 7.95996 16.1049 7.95996 15.5049V12.5049C7.95996 11.9049 8.35996 11.5049 8.95996 11.5049C9.55996 11.5049 9.95996 11.9049 9.95996 12.5049V15.5049Z" fill="#A9A9A9"/>
</svg>
