<svg width="25" height="25" viewBox="0 0 25 25" fill="none" xmlns="http://www.w3.org/2000/svg">
<path fill-rule="evenodd" clip-rule="evenodd" d="M13.1141 2.52637C11.1745 2.53005 9.27795 3.09768 7.65529 4.16011C6.03264 5.22253 4.75396 6.73391 3.975 8.51014C3.19605 10.2864 2.95044 12.2508 3.26809 14.1641C3.58574 16.0775 4.45294 17.8571 5.76406 19.2864C6.70049 20.3014 7.837 21.1115 9.102 21.6656C10.367 22.2196 11.733 22.5057 13.1141 22.5057C14.4951 22.5057 15.8611 22.2196 17.1261 21.6656C18.3911 21.1115 19.5276 20.3014 20.4641 19.2864C21.7752 17.8571 22.6424 16.0775 22.96 14.1641C23.2777 12.2508 23.0321 10.2864 22.2531 8.51014C21.4742 6.73391 20.1955 5.22253 18.5728 4.16011C16.9502 3.09768 15.0536 2.53005 13.1141 2.52637ZM20.0241 16.5264C19.2365 15.1793 17.1781 14.3746 15.577 13.7486L15.577 13.7486C15.3616 13.6644 15.1546 13.5835 14.96 13.5049C14.9761 13.4866 14.9922 13.4678 15.0083 13.4484C15.9744 12.8255 16.614 11.7399 16.614 10.5049C16.614 8.57189 15.047 7.00488 13.114 7.00488C11.181 7.00488 9.61401 8.57189 9.61401 10.5049C9.61401 11.8032 10.3209 12.9364 11.3709 13.5406C11.1503 13.6285 10.9119 13.7195 10.6624 13.8147L10.6624 13.8147C9.04692 14.4313 6.96416 15.2263 6.20406 16.5264C5.49201 15.3135 5.11578 13.9328 5.11406 12.5264C5.11406 10.4046 5.95692 8.3698 7.45721 6.86951C8.9575 5.36922 10.9923 4.52637 13.1141 4.52637C15.2358 4.52637 17.2706 5.36922 18.7709 6.86951C20.2712 8.3698 21.1141 10.4046 21.1141 12.5264C21.1123 13.9328 20.7361 15.3135 20.0241 16.5264Z" fill="#A9A9A9"/>
</svg>
